<svg width="47" height="78" viewBox="0 0 47 78" fill="none" xmlns="http://www.w3.org/2000/svg">
<path d="M44.1543 37.1056C44.1543 37.1056 43.0149 40.2728 41.2369 44.8235C40.6619 46.3017 40.018 47.9244 39.3238 49.6324C38.3566 52.0107 37.2914 54.5549 36.1759 57.0991C35.4896 58.665 34.7848 60.2284 34.072 61.7564C30.2405 69.9456 26.1599 77.0405 23.4863 77.14C17.4794 77.3627 4.61224 41.4312 3.20787 37.461C3.12571 37.2288 3.08334 37.1056 3.08334 37.1056H44.1543Z" fill="#DDBEA9"/>
<path opacity="0.1" d="M41.2368 44.8235C40.6619 46.3017 40.018 47.9244 39.3237 49.6324L23.412 37.1056H31.4328L41.2368 44.8235Z" fill="black"/>
<path opacity="0.1" d="M36.1759 57.0991C35.4896 58.665 34.7848 60.2284 34.072 61.7564L3.20787 37.461C3.12571 37.2288 3.08334 37.1056 3.08334 37.1056H10.7782L36.1759 57.0991Z" fill="black"/>
<path d="M24.331 5.28209C22.4482 6.61544 19.471 6.11126 17.6615 7.52342C16.4238 8.48936 16.0936 10.1411 16.4313 11.5786C16.7691 13.0161 17.6665 14.2916 18.5694 15.5187C19.1925 16.3657 19.839 17.2193 20.7145 17.8634C21.9387 18.764 23.5097 19.1832 25.0497 19.5199C28.4032 20.253 31.8277 20.6968 35.276 20.8452C36.8138 20.9113 38.5554 20.8452 39.5914 19.8272C40.1948 19.2343 40.4374 18.4219 40.6142 17.6362C40.8908 16.4071 41.0445 15.0838 40.473 13.939C40.0032 12.9979 39.0991 12.2926 38.1837 11.6664C35.3124 9.70212 31.9306 8.07595 30.1782 5.24875C29.4816 4.12498 29.0521 2.82275 27.9963 1.95085C26.6201 0.814387 23.5581 0.349689 21.9378 1.10886C22.1881 1.61909 25.4597 4.48278 24.331 5.28209Z" fill="#DEAAFF"/>
<path d="M8.50934 18.5342C7.9511 20.2648 7.43682 22.096 7.90687 23.8474C8.52661 26.1566 10.7913 27.886 13.2756 28.7266C15.7599 29.5672 18.4691 29.6654 21.1235 29.754L35.0215 30.2181C36.7681 30.2764 38.5483 30.3404 40.1898 30.8772C41.5427 31.3196 43.1507 32.0481 44.2786 31.2469C44.7902 30.8835 45.02 30.2952 45.2015 29.734C45.7922 27.9082 46.1227 25.9032 45.3283 24.1401C44.418 22.1198 42.1733 20.7923 39.8427 20.1577C37.5121 19.5231 35.0439 19.4613 32.6224 19.2217C30.166 18.9785 27.7372 18.5487 25.3625 17.9369C23.3771 17.4254 21.3657 16.7504 19.8972 15.451C19.1028 14.7482 18.5013 13.891 17.7526 13.1492C13.4636 8.89978 9.56424 15.2639 8.50934 18.5342Z" fill="#DEAAFF"/>
<path d="M5.45538 26.485C4.10361 27.0263 2.9311 27.8705 2.05141 28.9358C1.17173 30.0012 0.614678 31.2516 0.434206 32.5659C0.253734 33.8802 0.45596 35.2139 1.0213 36.4379C1.58665 37.6618 2.49594 38.7345 3.66113 39.552C5.77732 41.0368 8.54669 41.5531 11.2298 41.726C13.8498 41.8948 16.4811 41.7787 19.1047 41.6625L42.3176 40.6346C43.6783 40.5744 45.2183 40.4344 46.0489 39.469C46.6688 38.7485 46.7052 37.7547 46.5572 36.8554C46.0248 33.6204 43.2925 30.7564 39.8032 29.7759C38.4873 29.4061 37.1018 29.2891 35.7284 29.1743L25.7776 28.3419C24.4376 28.2298 23.0897 28.1165 21.791 27.8008C17.8559 26.8446 14.3398 24.0526 10.2882 24.466C7.53964 24.7464 5.27655 26.4667 3.27994 28.1786" fill="#DEAAFF"/>
<path opacity="0.1" d="M18.4518 12.4691C18.4518 12.4691 21.6996 17.7114 38.3589 19.8281L18.4518 12.4691Z" fill="black"/>
<path opacity="0.1" d="M9.23672 26.1995C9.23672 26.1995 15.2721 31.6572 40.1796 31.6572L9.23672 26.1995Z" fill="black"/>
<path d="M23.2213 9.86333C24.0994 9.86333 24.8111 9.65121 24.8111 9.38955C24.8111 9.12789 24.0994 8.91577 23.2213 8.91577C22.3433 8.91577 21.6315 9.12789 21.6315 9.38955C21.6315 9.65121 22.3433 9.86333 23.2213 9.86333Z" fill="#7D1AAB"/>
<path d="M28.5208 12.9429C29.3988 12.9429 30.1106 12.7307 30.1106 12.4691C30.1106 12.2074 29.3988 11.9953 28.5208 11.9953C27.6427 11.9953 26.9309 12.2074 26.9309 12.4691C26.9309 12.7307 27.6427 12.9429 28.5208 12.9429Z" fill="#7D1AAB"/>
<path d="M34.6152 16.2593C35.4932 16.2593 36.205 16.0472 36.205 15.7855C36.205 15.5239 35.4932 15.3118 34.6152 15.3118C33.7371 15.3118 33.0253 15.5239 33.0253 15.7855C33.0253 16.0472 33.7371 16.2593 34.6152 16.2593Z" fill="#7D1AAB"/>
<path d="M13.4172 17.6807C14.2953 17.6807 15.0071 17.4686 15.0071 17.2069C15.0071 16.9452 14.2953 16.7331 13.4172 16.7331C12.5392 16.7331 11.8274 16.9452 11.8274 17.2069C11.8274 17.4686 12.5392 17.6807 13.4172 17.6807Z" fill="#7D1AAB"/>
<path d="M26.9309 22.1816C27.8089 22.1816 28.5207 21.9695 28.5207 21.7078C28.5207 21.4462 27.8089 21.234 26.9309 21.234C26.0529 21.234 25.3411 21.4462 25.3411 21.7078C25.3411 21.9695 26.0529 22.1816 26.9309 22.1816Z" fill="#7D1AAB"/>
<path d="M7.85281 31.4203C8.73086 31.4203 9.44265 31.2082 9.44265 30.9465C9.44265 30.6848 8.73086 30.4727 7.85281 30.4727C6.97477 30.4727 6.26297 30.6848 6.26297 30.9465C6.26297 31.2082 6.97477 31.4203 7.85281 31.4203Z" fill="#7D1AAB"/>
<path d="M17.9218 22.6554C18.7999 22.6554 19.5117 22.4433 19.5117 22.1816C19.5117 21.9199 18.7999 21.7078 17.9218 21.7078C17.0438 21.7078 16.332 21.9199 16.332 22.1816C16.332 22.4433 17.0438 22.6554 17.9218 22.6554Z" fill="#7D1AAB"/>
<path d="M11.8274 34.9736C12.7055 34.9736 13.4173 34.7615 13.4173 34.4999C13.4173 34.2382 12.7055 34.0261 11.8274 34.0261C10.9494 34.0261 10.2376 34.2382 10.2376 34.4999C10.2376 34.7615 10.9494 34.9736 11.8274 34.9736Z" fill="#7D1AAB"/>
<path d="M22.1614 32.8416C23.0394 32.8416 23.7512 32.6295 23.7512 32.3678C23.7512 32.1062 23.0394 31.8941 22.1614 31.8941C21.2833 31.8941 20.5715 32.1062 20.5715 32.3678C20.5715 32.6295 21.2833 32.8416 22.1614 32.8416Z" fill="#7D1AAB"/>
<path d="M28.3883 44.2123C29.3395 44.2123 30.1106 42.7805 30.1106 41.0143C30.1106 39.2481 29.3395 37.8163 28.3883 37.8163C27.4371 37.8163 26.666 39.2481 26.666 41.0143C26.666 42.7805 27.4371 44.2123 28.3883 44.2123Z" fill="#DEAAFF"/>
<path d="M30.5081 45.3968C31.4593 45.3968 32.2304 43.965 32.2304 42.1988C32.2304 40.4326 31.4593 39.0008 30.5081 39.0008C29.5569 39.0008 28.7857 40.4326 28.7857 42.1988C28.7857 43.965 29.5569 45.3968 30.5081 45.3968Z" fill="#DEAAFF"/>
</svg>
